<?xml version="1.0" encoding="utf-8"?>
<svg viewBox="2.439 2.517 150 43.743" xmlns="http://www.w3.org/2000/svg">
  <g id="g75" style="display:inline" transform="matrix(3, 0, 0, 3, -0.560795, 0.388985)">
    <g id="g364" transform="matrix(0.13506366,0,0,0.12465596,0.35112813,0.33178613)">
      <path id="path345" style="display:inline;fill:#16a34a;fill-opacity:1;stroke-width:0.248872" d="m 63.289138,3.03004 c -0.21291,0 -0.41918,0.0361 -0.61197,0.10305 -0.1928,0.0669 -0.37232,0.16465 -0.53177,0.28824 -0.15945,0.1236 -0.29883,0.2728 -0.41171,0.44282 -0.11288,0.17002 -0.1992,0.36106 -0.25227,0.56725 l -8.82476,34.272437 -23.49656,-13.874143 c -0.18335,-0.108384 -0.37936,-0.182641 -0.5794,-0.22311 -0.20005,-0.04047 -0.40406,-0.04721 -0.6042,-0.02187 -0.20014,0.02534 -0.39624,0.08303 -0.57989,0.172071 -0.18365,0.08904 -0.35495,0.209069 -0.50552,0.359699 -0.15051,0.150567 -0.2707,0.321854 -0.3597,0.505521 -0.089,0.183668 -0.1467,0.379737 -0.17207,0.579892 -0.0254,0.200156 -0.0185,0.404651 0.0219,0.604682 0.0404,0.200031 0.11436,0.395625 0.22262,0.57892 l 13.87366,23.497036 -34.2719498,8.824759 c -0.20619,0.05307 -0.39723,0.139398 -0.56725,0.252274 -0.17002,0.112876 -0.31922,0.25226 -0.44282,0.41171 -0.12359,0.159447 -0.22132,0.338974 -0.28824,0.53177 -0.0669,0.192794 -0.10305,0.399062 -0.10305,0.611972 0,0.21291 0.0361,0.419178 0.10305,0.611972 0.0669,0.192796 0.16465,0.372323 0.28824,0.53177 0.1236,0.15945 0.2728,0.298833 0.44282,0.411709 0.17002,0.112876 0.36106,0.199203 0.56725,0.252275 l 34.2724398,8.824758 -13.87414,23.49704 c -0.10826,0.183295 -0.18223,0.378889 -0.22263,0.57892 -0.0404,0.200031 -0.0472,0.404527 -0.0219,0.604682 0.0254,0.200156 0.0831,0.396225 0.17207,0.579892 0.089,0.183668 0.20913,0.354954 0.3597,0.505522 0.17981,0.17981 0.38961,0.31614 0.6144,0.40782 0.2248,0.09168 0.46475,0.138532 0.70628,0.138532 0.16276,0 0.32606,-0.02111 0.48559,-0.06416 0.15953,-0.04305 0.31517,-0.108299 0.46275,-0.195404 l 23.49703,-13.873658 8.82476,34.27194 c 0.0531,0.20613 0.13939,0.39677 0.25227,0.56677 0.11289,0.17001 0.25277,0.3197 0.4122,0.44331 0.15943,0.12361 0.33851,0.2213 0.53128,0.28824 0.19278,0.0669 0.39907,0.10305 0.61198,0.10305 0.21291,0 0.41918,-0.0361 0.61197,-0.10305 0.19279,-0.0669 0.37232,-0.16465 0.53177,-0.28824 0.15945,-0.1236 0.29883,-0.2728 0.41171,-0.44282 0.11287,-0.17002 0.1992,-0.36106 0.25227,-0.56726 l 8.82476,-34.272427 23.49704,13.874143 c 0.14771,0.08723 0.30325,0.152379 0.46275,0.195404 0.15949,0.04302 0.32283,0.06416 0.48559,0.06416 0.24141,0 0.48148,-0.04686 0.70627,-0.138532 0.2248,-0.09168 0.43447,-0.22801 0.61441,-0.40782 0.1505,-0.150568 0.2707,-0.321854 0.359692,-0.505522 0.089,-0.183667 0.14671,-0.379736 0.17208,-0.579892 0.0254,-0.200155 0.0185,-0.404651 -0.0219,-0.604682 -0.0404,-0.200031 -0.11437,-0.395625 -0.222632,-0.57892 L 86.101268,72.147504 120.3737,63.322746 c 0.20619,-0.05307 0.39674,-0.139399 0.56676,-0.252275 0.17002,-0.112876 0.31971,-0.252259 0.44331,-0.411709 0.12359,-0.159447 0.22132,-0.338974 0.28824,-0.53177 0.0669,-0.192794 0.10305,-0.399062 0.10305,-0.611972 0,-0.21291 -0.0361,-0.419178 -0.10305,-0.611972 -0.067,-0.192796 -0.16504,-0.372323 -0.28873,-0.53177 -0.12369,-0.15945 -0.27322,-0.298834 -0.4433,-0.41171 -0.17009,-0.112876 -0.36107,-0.199202 -0.56726,-0.252274 l -34.272422,-8.824759 13.87415,-23.49704 c 0.108262,-0.183294 0.182222,-0.378888 0.222622,-0.578919 0.0404,-0.200031 0.0472,-0.404527 0.0219,-0.604682 -0.0254,-0.200155 -0.0831,-0.396224 -0.17207,-0.579892 -0.089,-0.183667 -0.209132,-0.354954 -0.359702,-0.505522 -0.15057,-0.150567 -0.32189,-0.270711 -0.50552,-0.359698 -0.18363,-0.08899 -0.37977,-0.146749 -0.57989,-0.172072 -0.20013,-0.02532 -0.40463,-0.01807 -0.60468,0.02236 -0.20006,0.04043 -0.39551,0.114365 -0.57892,0.222624 L 73.921138,38.703349 65.096868,4.4314 c -0.0531,-0.20619 -0.1394,-0.39723 -0.25228,-0.56725 -0.11287,-0.17002 -0.25226,-0.31922 -0.41171,-0.44282 -0.15944,-0.12359 -0.33897,-0.22132 -0.53177,-0.28824 -0.19279,-0.0669 -0.39906,-0.10305 -0.61197,-0.10305 z m 0,9.35167 7.62657,29.618711 c -2.54219,-9.872904 -5.08438,-19.745809 -7.62657,-29.618711 z m -29.78544,19.34787 c -19.13303,-19.13303 -9.56651,-9.566513 0,0 z m 59.57088,0 c -58.84695,-19.13303 -29.42347,-9.566513 0,0 z"/>
      <g id="g324" transform="translate(4.8040563,3.03071)">
        <g aria-label="salvis" transform="matrix(0.24887225,0,0,0.24887225,-128.95568,8.8427042)" id="text9980" style="white-space:pre;shape-inside:url(#rect9982);display:inline;fill:#15803d">
          <path d="m 1112.657,312.1475 q -24.3333,0 -43.3333,-8.33333 -19,-8.33332 -30,-22.66664 -11,-14.66665 -12.3333,-32.66664 h 56.3333 q 1,9.66666 9,15.66666 8,5.99999 19.6666,5.99999 10.6667,0 16.3333,-4 6,-4.33333 6,-10.99999 0,-7.99999 -8.3333,-11.66665 -8.3333,-4 -27,-8.66666 -19.9999,-4.66666 -33.3333,-9.66666 -13.3333,-5.33332 -22.9999,-16.33331 -9.6667,-11.33333 -9.6667,-30.33331 0,-15.99998 8.6667,-28.99997 9,-13.33332 25.9999,-20.99998 17.3334,-7.66666 41,-7.66666 35,0 54.9999,17.33332 20.3334,17.33332 23.3334,45.99995 h -52.6667 q -1.3333,-9.66665 -8.6666,-15.33331 -7,-5.66667 -18.6667,-5.66667 -10,0 -15.3333,4 -5.3333,3.66666 -5.3333,10.33332 0,8 8.3333,11.99999 8.6667,4 26.6667,7.99999 20.6666,5.33333 33.6666,10.66666 13,5 22.6666,16.66665 10,11.33332 10.3334,30.66664 0,16.33332 -9.3334,29.3333 -9,12.66666 -26.3333,19.99998 -17,7.33333 -39.6666,7.33333 z" style="font-size:333.333px;font-family:Poppins;-inkscape-font-specification:'Poppins, Normal';text-align:center;text-anchor:middle;fill:#ffffff" id="path4575"/>
          <path d="m 1211.6565,216.14759 q 0,-28.66664 10.6666,-50.33328 11,-21.66665 29.6666,-33.3333 18.6667,-11.66666 41.6667,-11.66666 19.6666,0 34.3333,7.99999 15,8 23,20.99998 v -26.3333 h 56.9999 v 185.99981 h -56.9999 v -26.3333 q -8.3334,12.99998 -23.3334,20.99998 -14.6666,7.99999 -34.3333,7.99999 -22.6666,0 -41.3333,-11.66666 -18.6666,-11.99998 -29.6666,-33.66663 -10.6666,-21.99998 -10.6666,-50.66662 z m 139.3332,0.33334 q 0,-21.33332 -12,-33.66664 -11.6667,-12.33332 -28.6667,-12.33332 -17,0 -28.9999,12.33332 -11.6667,11.99999 -11.6667,33.3333 0,21.33332 11.6667,33.99997 11.9999,12.33332 28.9999,12.33332 17,0 28.6667,-12.33332 12,-12.33332 12,-33.66663 z" style="font-size:333.333px;font-family:Poppins;-inkscape-font-specification:'Poppins, Normal';text-align:center;text-anchor:middle;fill:#ffffff" id="path4577"/>
          <path d="M 1506.3225,62.814409 V 309.48083 h -56.9999 V 62.814409 Z" style="font-size:333.333px;font-family:Poppins;-inkscape-font-specification:'Poppins, Normal';text-align:center;text-anchor:middle;fill:#ffffff" id="path4579"/>
          <path d="m 1631.3218,256.14755 40.3332,-132.66653 h 60.6667 l -66,185.99981 h -70.3332 l -66,-185.99981 h 61 z" style="font-size:333.333px;font-family:Poppins;-inkscape-font-specification:'Poppins, Normal';text-align:center;text-anchor:middle;fill:#ffffff" id="path4581"/>
          <path d="m 1784.9881,104.1477 q -15,0 -24.6666,-8.666656 -9.3334,-8.999991 -9.3334,-21.999979 0,-13.33332 9.3334,-21.999978 9.6666,-8.999991 24.6666,-8.999991 14.6666,0 24,8.999991 9.6666,8.666658 9.6666,21.999978 0,12.999988 -9.6666,21.999979 -9.3334,8.666656 -24,8.666656 z m 28.3333,19.33332 v 185.99981 h -56.9999 V 123.48102 Z" style="font-size:333.333px;font-family:Poppins;-inkscape-font-specification:'Poppins, Normal';text-align:center;text-anchor:middle;fill:#ffffff" id="path4583"/>
          <path d="m 1930.3207,312.1475 q -24.3333,0 -43.3333,-8.33333 -19,-8.33332 -30,-22.66664 -11,-14.66665 -12.3333,-32.66664 h 56.3333 q 1,9.66666 9,15.66666 8,5.99999 19.6666,5.99999 10.6667,0 16.3333,-4 6,-4.33333 6,-10.99999 0,-7.99999 -8.3333,-11.66665 -8.3333,-4 -27,-8.66666 -19.9999,-4.66666 -33.3333,-9.66666 -13.3333,-5.33332 -22.9999,-16.33331 -9.6667,-11.33333 -9.6667,-30.33331 0,-15.99998 8.6667,-28.99997 9,-13.33332 25.9999,-20.99998 17.3334,-7.66666 41,-7.66666 35,0 54.9999,17.33332 20.3334,17.33332 23.3334,45.99995 h -52.6667 q -1.3333,-9.66665 -8.6666,-15.33331 -7,-5.66667 -18.6667,-5.66667 -10,0 -15.3333,4 -5.3333,3.66666 -5.3333,10.33332 0,8 8.3333,11.99999 8.6667,4 26.6666,7.99999 20.6667,5.33333 33.6667,10.66666 13,5 22.6666,16.66665 10,11.33332 10.3334,30.66664 0,16.33332 -9.3334,29.3333 -9,12.66666 -26.3333,19.99998 -17,7.33333 -39.6666,7.33333 z" style="font-size:333.333px;font-family:Poppins;-inkscape-font-specification:'Poppins, Normal';text-align:center;text-anchor:middle;fill:#ffffff" id="path4585"/>
        </g>
        <path d="M 115.56894,56.676752 81.296494,47.851742 95.170375,24.354966 c 0.433038,-0.733178 0.314824,-1.666698 -0.287447,-2.268969 -0.602271,-0.60227 -1.535293,-0.720236 -2.268969,-0.287198 L 69.117183,35.67268 60.292671,1.4004823 C 60.080383,0.57571964 59.336753,-6.6850369e-4 58.485112,-6.6850369e-4 c -0.851641,0 -1.595271,0.57638814369 -1.80756,1.40115080369 L 47.852542,35.672929 24.356015,21.798799 c -0.733426,-0.433536 -1.666697,-0.315321 -2.268968,0.287198 -0.602022,0.602271 -0.720485,1.535791 -0.287448,2.268969 L 35.673481,47.851742 1.4012827,56.676752 C 0.57652004,56.88904 1.3190229e-4,57.63267 1.3190229e-4,58.484311 c 0,0.851641 0.57638813771,1.595271 1.40115079771,1.807559 L 35.67373,69.116881 21.799848,92.613657 c -0.433038,0.733177 -0.314823,1.666697 0.287448,2.268968 0.35962,0.35962 0.837455,0.546524 1.320516,0.546524 0.325525,0 0.653289,-0.08512 0.948452,-0.259325 L 47.85304,81.295942 56.67805,115.56814 c 0.212537,0.82451 0.955919,1.40115 1.807559,1.40115 0.851641,0 1.595272,-0.57639 1.80756,-1.40115 l 8.82501,-34.272447 23.496776,13.874131 c 0.295411,0.174459 0.622927,0.259325 0.948452,0.259325 0.482812,0 0.960647,-0.186904 1.320516,-0.546524 0.602022,-0.602271 0.720485,-1.535791 0.287448,-2.268968 L 81.297489,69.116881 115.56969,60.29187 c 0.82476,-0.212288 1.40115,-0.955918 1.40115,-1.807559 0,-0.851641 -0.57714,-1.595271 -1.4019,-1.807559 z M 71.611381,71.610829 77.533545,70.08574 88.270392,88.269592 70.086541,77.532496 Z m -0.966122,-22.647126 7.292455,1.87799 c 0.0117,0.003 29.680506,7.642618 29.680506,7.642618 l -29.611569,7.624948 c -0.0087,0.0022 -0.01742,0.0047 -0.02638,0.0067 l -7.335012,1.88894 -2.639539,2.639539 -1.888941,7.336257 c -0.002,0.0082 -0.0045,0.01618 -0.0062,0.02464 L 58.485112,107.61742 50.85867,77.999131 c -9.95e-4,-0.004 -1.893918,-7.354673 -1.893918,-7.354673 L 46.324964,68.004919 9.3520046,58.484311 46.324964,48.963703 l 2.639788,-2.639539 1.888941,-7.336256 c 0.002,-0.0082 0.0045,-0.01618 0.0062,-0.02464 L 58.485112,9.3512042 66.111553,38.969491 c 9.96e-4,0.004 1.893918,7.354673 1.893918,7.354673 m 3.60591,-0.966371 -1.52484,-5.921915 18.183851,-10.737096 -10.736847,18.183603 z m -26.252539,0 -5.922164,1.525089 -10.736847,-18.183851 18.183852,10.737096 z m 0,26.253036 1.524841,5.921916 L 28.699831,88.26984 39.436678,70.086238 Z" id="path73" style="display:inline;fill:#4ade80;fill-opacity:1;stroke-width:0.248872"/>
      </g>
    </g>
  </g>
</svg>