<svg height={16} xmlns="http://www.w3.org/2000/svg">
    <defs>
        <path id="a" d="M518.587 17.814h1999.134v674.955H518.587z" />
    </defs>
    <g style= {{ display:"inline" , }}>
        <path style= {{ display:"inline" , fill:"#16a34a" , fillOpacity: 1, strokeWidth: 0.248872, }} d="M63.29 3.03a1.864 1.864 0 0 0-1.809 1.401l-8.824 34.273L29.16 24.83a1.865 1.865 0 0 0-2.556 2.555l13.873 23.498-34.271 8.824a1.865 1.865 0 0 0 0 3.616l34.272 8.825-13.874 23.497a1.862 1.862 0 0 0 .287 2.269 1.862 1.862 0 0 0 1.806.482c.16-.043.316-.109.463-.196l23.497-13.873 8.825 34.272A1.864 1.864 0 0 0 63.29 120a1.864 1.864 0 0 0 1.807-1.401l8.825-34.273L97.42 98.2a1.865 1.865 0 0 0 2.556-2.555L86.101 72.148l34.273-8.825a1.863 1.863 0 0 0 1.401-1.808 1.864 1.864 0 0 0-1.402-1.808L86.1 50.883l13.874-23.498a1.862 1.862 0 0 0-.287-2.269 1.863 1.863 0 0 0-2.269-.286L73.921 38.703 65.097 4.431a1.866 1.866 0 0 0-1.808-1.401zm0 9.352L70.915 42l-7.627-29.618zM33.503 31.73c-19.133-19.133-9.567-9.567 0 0zm59.57 0c-58.846-19.133-29.423-9.567 0 0z" transform="matrix(.13506 0 0 .12466 .351 .332)" />
        <g aria-label="salvis" transform="matrix(.03361 0 0 .03102 -16.417 1.812)" style= {{ whiteSpace:"pre" , shapeInside:"url(#a)" , display:"inline" , fill:"#15803d" , }}>
            <path d="M1112.657 312.147q-24.333 0-43.333-8.333t-30-22.666q-11-14.667-12.334-32.667h56.334q1 9.667 9 15.667t19.666 6q10.667 0 16.334-4 6-4.334 6-11 0-8-8.334-11.667-8.333-4-27-8.667-20-4.666-33.333-9.666-13.333-5.334-23-16.334-9.667-11.333-9.667-30.333 0-16 8.667-29 9-13.333 26-21 17.333-7.667 41-7.667 35 0 55 17.334 20.333 17.333 23.333 46h-52.666q-1.334-9.667-8.667-15.334-7-5.666-18.667-5.666-10 0-15.333 4-5.333 3.666-5.333 10.333 0 8 8.333 12 8.667 4 26.667 8 20.666 5.333 33.666 10.667 13 5 22.667 16.666 10 11.334 10.333 30.667 0 16.333-9.333 29.333-9 12.667-26.333 20-17 7.333-39.667 7.333zM1211.657 216.148q0-28.667 10.666-50.334 11-21.666 29.667-33.333 18.666-11.667 41.666-11.667 19.667 0 34.334 8 15 8 23 21v-26.333h57v186h-57v-26.333q-8.334 13-23.334 21-14.666 8-34.333 8-22.667 0-41.333-11.667-18.667-12-29.667-33.667-10.667-22-10.667-50.666zm139.333.333q0-21.333-12-33.667-11.667-12.333-28.667-12.333t-29 12.333q-11.667 12-11.667 33.334 0 21.333 11.667 34 12 12.333 29 12.333t28.667-12.333q12-12.334 12-33.667zM1506.322 62.814v246.667h-57V62.814ZM1631.322 256.148l40.333-132.667h60.667l-66 186h-70.333l-66-186h61zM1784.988 104.148q-15 0-24.667-8.667-9.333-9-9.333-22 0-13.333 9.333-22 9.667-9 24.667-9 14.667 0 24 9 9.667 8.667 9.667 22 0 13-9.667 22-9.333 8.667-24 8.667zm28.333 19.333v186h-57v-186ZM1930.32 312.147q-24.333 0-43.333-8.333t-30-22.666q-11-14.667-12.333-32.667h56.333q1 9.667 9 15.667t19.667 6q10.667 0 16.333-4 6-4.334 6-11 0-8-8.333-11.667-8.333-4-27-8.667-20-4.666-33.333-9.666-13.334-5.334-23-16.334-9.667-11.333-9.667-30.333 0-16 8.667-29 9-13.333 26-21 17.333-7.667 41-7.667 35 0 55 17.334 20.333 17.333 23.333 46h-52.667q-1.333-9.667-8.666-15.334-7-5.666-18.667-5.666-10 0-15.333 4-5.334 3.666-5.334 10.333 0 8 8.334 12 8.666 4 26.666 8 20.667 5.333 33.667 10.667 13 5 22.667 16.666 10 11.334 10.333 30.667 0 16.333-9.333 29.333-9 12.667-26.334 20-17 7.333-39.666 7.333z" style= {{ fontSize:"333.333px" , fontFamily:"Poppins" , InkscapeFontSpecification:"'Poppins, Normal'" , textAlign:"center" , textAnchor:"middle" , fill:"#fff" , }} />
        </g>
        <path d="m115.569 56.677-34.273-8.825L95.17 24.355a1.867 1.867 0 0 0-2.556-2.556L69.117 35.673 60.293 1.4a1.866 1.866 0 0 0-3.615 0l-8.825 34.273-23.497-13.874a1.865 1.865 0 0 0-2.556 2.556l13.873 23.497-34.272 8.825a1.866 1.866 0 0 0 0 3.615l34.273 8.825L21.8 92.614a1.867 1.867 0 0 0 2.556 2.556l23.497-13.874 8.825 34.272a1.867 1.867 0 0 0 3.615 0l8.825-34.272L92.615 95.17a1.866 1.866 0 0 0 2.556-2.556L81.297 69.117l34.273-8.825a1.866 1.866 0 0 0-.001-3.615zM71.61 71.61l5.923-1.525L88.27 88.27 70.087 77.532Zm-.966-22.647 7.293 1.878 29.68 7.642-29.611 7.625-.027.007-7.335 1.889-2.64 2.64-1.888 7.336-.006.024-7.626 29.612L50.86 78l-1.894-7.355-2.64-2.64-36.973-9.52 36.973-9.52 2.64-2.64 1.889-7.336.006-.025 7.625-29.612 7.627 29.618 1.893 7.355m3.606-.966-1.524-5.922L88.27 28.699 77.534 46.882zm-26.252 0-5.922 1.525L28.7 28.699l18.184 10.737zm0 26.253 1.525 5.922L28.7 88.27l10.737-18.184Z" style= {{ display:"inline" , fill:"#4ade80" , fillOpacity: 1, strokeWidth: 0.248872, }} transform="matrix(.13506 0 0 .12466 1 .71)" />
    </g>
</svg>